<svg version="1.1" xmlns="http://www.w3.org/2000/svg" xmlns:xlink="http://www.w3.org/1999/xlink" width="24px" height="24px" viewBox="0,0,256,256"><g fill="#0d6efd" fill-rule="nonzero" stroke="none" stroke-width="1" stroke-linecap="butt" stroke-linejoin="miter" stroke-miterlimit="10" stroke-dasharray="" stroke-dashoffset="0" font-family="none" font-weight="none" font-size="none" text-anchor="none" style="mix-blend-mode: normal"><g transform="translate(0.00782,-0.00023) scale(10.66667,10.66667)"><path d="M22.987,5.452c-0.028,-0.177 -0.312,-1.767 -1.464,-2.928c-1.157,-1.132 -2.753,-1.412 -2.931,-1.44c-0.237,-0.039 -0.479,0.011 -0.682,0.137c-0.071,0.044 -1.114,0.697 -3.173,2.438c1.059,0.374 2.428,1.023 3.538,2.109c1.114,1.09 1.78,2.431 2.162,3.471c1.72,-2.01 2.367,-3.028 2.41,-3.098c0.128,-0.205 0.178,-0.45 0.14,-0.689z"></path><path d="M12.95,5.223c-1.073,0.968 -2.322,2.144 -3.752,3.564c-6.063,6.02 -7.653,8.427 -7.718,8.526c-0.091,0.14 -0.146,0.301 -0.159,0.467l-0.319,4.071c-0.022,0.292 0.083,0.578 0.29,0.785c0.188,0.188 0.443,0.293 0.708,0.293c0.025,0 0.051,0 0.077,-0.003l4.101,-0.316c0.165,-0.013 0.324,-0.066 0.463,-0.155c0.1,-0.064 2.523,-1.643 8.585,-7.662c1.462,-1.452 2.668,-2.716 3.655,-3.797c-0.151,-0.649 -0.678,-2.501 -2.005,-3.798c-1.346,-1.317 -3.283,-1.833 -3.927,-1.975z"></path></g></g></svg>